<svg width="18" height="20" viewBox="0 0 18 20" fill="none" xmlns="http://www.w3.org/2000/svg">
<path d="M16.6667 8H14V5.33333C14 2.4 11.6 0 8.66667 0C5.73333 0 3.33333 2.4 3.33333 5.33333V8H0.666667C0.266667 8 0 8.33333 0 8.66667V19.3333C0 19.7333 0.266667 20 0.666667 20H16.6667C17 20 17.3333 19.7333 17.3333 19.3333V8.66667C17.3333 8.26667 17.0667 8 16.6667 8ZM4.66667 5.33333C4.66667 3.13333 6.46667 1.33333 8.66667 1.33333C10.8667 1.33333 12.6667 3.13333 12.6667 5.33333V8H4.66667V5.33333ZM16 18.6667H1.33333V9.33333H16V18.6667Z" fill="#AAB3BD"/>
<path d="M9.2665 14.0666C9.2665 14.1333 9.33317 14.2666 9.33317 14.3333V15.6666C9.33317 15.9999 8.99984 16.3333 8.6665 16.3333C8.2665 16.3333 7.99984 15.9999 7.99984 15.6666V14.3333C7.99984 14.2666 7.99984 14.1333 8.0665 14.0666C7.79984 13.8666 7.6665 13.5999 7.6665 13.2666C7.6665 12.7333 8.13317 12.2666 8.6665 12.2666C9.19984 12.2666 9.6665 12.7333 9.6665 13.2666C9.6665 13.5999 9.53317 13.9333 9.2665 14.0666Z" fill="#AAB3BD"/>
</svg>
