<?xml version="1.0" encoding="utf-8"?>
<!-- Generator: Adobe Illustrator 21.1.0, SVG Export Plug-In . SVG Version: 6.00 Build 0)  -->
<svg version="1.1" id="Layer_1" xmlns="http://www.w3.org/2000/svg" xmlns:xlink="http://www.w3.org/1999/xlink" x="0px" y="0px"
	 viewBox="0 0 80 80" style="enable-background:new 0 0 80 80;" xml:space="preserve">
<style type="text/css">
	.st0{fill:#FFFFFF;}
	.st1{fill:#A4222D;}
</style>
<g>
	<path class="st0" d="M30.2,76c-0.2,0-0.4,0-0.6-0.1c-0.6-0.3-1-0.9-0.9-1.6L33.4,45H20.2c-0.6,0-1.1-0.3-1.3-0.8
		c-0.3-0.5-0.2-1.1,0.2-1.6l30-39c0.4-0.5,1.2-0.7,1.8-0.5s1,0.9,0.9,1.6L46.9,34h13.2c0.6,0,1.1,0.3,1.3,0.8
		c0.3,0.5,0.2,1.1-0.2,1.6l-30,39C31.1,75.8,30.6,76,30.2,76z M23.2,42h12c0.4,0,0.9,0.2,1.1,0.5c0.3,0.3,0.4,0.8,0.3,1.2l-4.1,25.1
		L57.1,37h-12c-0.4,0-0.9-0.2-1.1-0.5c-0.3-0.3-0.4-0.8-0.3-1.2l4.1-25.1L23.2,42z"/>
	<path class="st1" d="M29.2,50.6h-9c-2.7,0-5-1.5-6.2-3.9c-1.2-2.4-0.9-5.2,0.7-7.3l2.2-2.8c0.5-0.7,1.4-0.8,2.1-0.3
		c0.7,0.5,0.8,1.4,0.3,2.1l-2.2,2.8c-0.9,1.2-1.1,2.7-0.4,4.1c0.7,1.4,2,2.2,3.5,2.2h9c0.8,0,1.5,0.7,1.5,1.5S30,50.6,29.2,50.6z"/>
	<path class="st1" d="M28,26.2c-0.3,0-0.6-0.1-0.9-0.3c-0.7-0.5-0.8-1.4-0.3-2.1l8.5-11.1c0.5-0.7,1.4-0.8,2.1-0.3
		c0.7,0.5,0.8,1.4,0.3,2.1l-8.5,11.1C28.9,26,28.4,26.2,28,26.2z"/>
	<path class="st1" d="M49,60c-0.3,0-0.6-0.1-0.9-0.3c-0.7-0.5-0.8-1.4-0.3-2.1l15.2-20.2c0.8-1,0.9-2.4,0.3-3.5
		c-0.6-1.2-1.7-1.9-3-1.9h-9.2c-0.8,0-1.5-0.7-1.5-1.5s0.7-1.5,1.5-1.5h9.2c2.4,0,4.6,1.4,5.7,3.5c1.1,2.2,0.9,4.7-0.6,6.7
		L50.2,59.4C49.9,59.8,49.5,60,49,60z"/>
	<path class="st1" d="M24.5,76c-0.1,0-0.2,0-0.2,0c-0.8-0.1-1.4-0.9-1.2-1.7l1.8-11.4c0.1-0.8,0.9-1.4,1.7-1.2
		c0.8,0.1,1.4,0.9,1.2,1.7L26,74.7C25.9,75.5,25.2,76,24.5,76z"/>
	<path class="st1" d="M34.5,79.4c-0.3,0-0.6-0.1-0.9-0.3c-0.7-0.5-0.8-1.4-0.3-2.1l9.6-12.8c0.5-0.7,1.4-0.8,2.1-0.3
		c0.7,0.5,0.8,1.4,0.3,2.1l-9.6,12.8C35.4,79.2,34.9,79.4,34.5,79.4z"/>
	<path class="st1" d="M53.2,20.2c-0.1,0-0.2,0-0.2,0c-0.8-0.1-1.4-0.9-1.2-1.7l2.3-14.2C54.2,3.4,55,2.9,55.8,3
		c0.8,0.1,1.4,0.9,1.2,1.7l-2.3,14.2C54.6,19.7,54,20.2,53.2,20.2z"/>
</g>
</svg>
