<svg width="93" height="83" viewBox="0 0 93 83" fill="none" xmlns="http://www.w3.org/2000/svg">
<path d="M46.5 17.9389L45.1723 15.4137C40.8054 7.10774 33.8863 1.5 24.7031 1.5C11.3845 1.5 1.5 12.6809 1.5 26.6131C1.5 35.7263 5.82223 43.2466 13.6042 51.4511C18.9959 57.1355 25.9082 63.0122 34.0005 69.892C37.6665 73.0087 41.5747 76.3313 45.6934 79.9352L46.5 17.9389ZM46.5 17.9389L47.8277 15.4136M46.5 17.9389L47.8277 15.4136M47.8277 15.4136C52.1942 7.10826 59.1134 1.5 68.2969 1.5M47.8277 15.4136L68.2969 1.5M68.2969 1.5C81.617 1.5 91.5 12.6831 91.5 26.6131M68.2969 1.5L91.5 26.6131M91.5 26.6131C91.5 35.7001 86.8931 43.3482 78.7808 51.7079M91.5 26.6131L78.7808 51.7079M78.7808 51.7079C73.4073 57.2453 66.6466 62.9523 58.8764 69.5114M78.7808 51.7079L58.8764 69.5114M58.8764 69.5114C54.8904 72.8762 50.6388 76.4652 46.1725 80.3706M58.8764 69.5114L46.1725 80.3706M46.1725 80.3706C46.1591 80.3582 46.1452 80.3453 46.1309 80.332L46.0769 80.282C45.9671 80.1805 45.8382 80.0619 45.6935 79.9354L46.1725 80.3706Z" fill="#E20338" stroke="#030001" stroke-width="3"/>
</svg>
