<svg width="108" height="19" viewBox="0 0 108 19" fill="none" xmlns="http://www.w3.org/2000/svg">
<path d="M18.6873 3.64012V6.4337C20.6978 6.4337 22.3274 4.80411 22.3274 2.79358V0C20.3168 0 18.6873 1.62959 18.6873 3.64012Z" fill="#E20338"/>
<path d="M18.6873 10.0316V14.9627C18.6873 16.8885 20.3168 18.4758 22.3274 18.4758V9.41784C21.248 9.22737 20.084 8.93108 18.6873 8.50781V10.0316Z" fill="#E20338"/>
<path d="M40.4219 5.12156C40.4219 5.01574 40.4007 4.88876 40.3796 4.78294C40.2949 4.12688 40.1256 3.44965 39.8293 2.81474C39.0463 1.12166 37.5225 0.148144 35.5543 0H28.4222C26.4329 0.148144 24.9302 1.12166 24.1472 2.81474C23.8721 3.42848 23.7028 4.06339 23.597 4.69829C23.5335 5.05807 23.4911 5.43901 23.47 5.84112V8.95215V9.62938V11.1531V14.9414V18.4122C25.4805 18.4122 27.1101 16.8461 27.1101 14.9414V13.5446C28.6339 13.6293 29.9672 13.6293 30.856 13.6293C33.4168 13.6293 36.0622 13.1214 37.9881 11.6822C39.5965 10.4971 40.4642 8.86749 40.5066 6.92045C40.5066 6.39137 40.4854 5.75646 40.4219 5.12156ZM27.1101 10.095V8.97331V6.13741C27.1101 4.59247 27.7873 3.5343 28.8243 3.47081H35.1734C35.9352 3.5343 36.5278 4.14804 36.7395 5.12156C36.803 5.54483 36.8453 6.09508 36.8453 6.77231C36.8453 7.7035 36.4855 8.4019 35.7236 8.97331C35.4062 9.20611 34.9829 9.41774 34.475 9.58705C32.5914 10.2008 29.5862 10.3701 27.1101 10.095ZM36.422 8.95215C36.3162 8.99447 36.1892 9.0368 36.0834 9.07913C36.1892 9.0368 36.295 8.99447 36.422 8.95215ZM35.6178 9.24844C35.3427 9.33309 35.0887 9.41774 34.8348 9.48123C35.0887 9.41774 35.3427 9.33309 35.6178 9.24844ZM37.7765 8.4019C37.9246 8.33841 38.0939 8.25375 38.2632 8.19026C38.0939 8.27492 37.9246 8.33841 37.7765 8.4019ZM38.6653 7.97863C38.8135 7.91514 38.9616 7.83048 39.0886 7.74583C38.9405 7.83048 38.8135 7.91514 38.6653 7.97863Z" fill="#E20338"/>
<path d="M14.116 3.27871L12.9309 6.05112L9.29076 14.6647C9.22727 14.834 9.07913 14.9398 8.88866 14.9609H8.65586C8.48655 14.9398 8.31724 14.834 8.25375 14.6647L3.38615 3.13056C2.89939 1.83959 1.39679 0.188839 0 0.0195312V4.18873L4.88876 16.0826C5.41785 17.5217 6.8358 18.4952 8.42306 18.4952H9.14262C10.7299 18.4952 12.1478 17.5429 12.6769 16.0826L16.1477 7.61722L17.5445 4.18873V0.0195312C16.1689 0.188839 14.5816 1.98773 14.116 3.27871Z" fill="#E20338"/>
<path d="M60.8873 5.16453C60.8661 5.05871 60.845 4.93173 60.845 4.82591C60.7603 4.16984 60.591 3.49261 60.2947 2.85771C59.5117 1.16463 58.0091 0.16995 56.0409 0.0429688H48.9511C46.9829 0.191113 45.4803 1.16463 44.6972 2.85771C44.4221 3.47145 44.2528 4.10635 44.147 4.74126C44.0835 5.10104 44.0412 5.48198 44.02 5.88408V8.99511V9.67234V11.2173V15.0055V18.4763C46.0305 18.4763 47.639 16.9102 47.639 15.0055V13.6087C49.1627 13.6934 50.4749 13.6934 51.3637 13.6934C53.9034 13.6934 56.5488 13.1855 58.4535 11.7464C60.0408 10.5612 60.9085 8.93162 60.972 6.98458C60.9508 6.41317 60.9508 5.79943 60.8873 5.16453ZM56.2102 8.99511C55.8927 9.22791 55.4695 9.43954 54.9615 9.60885C53.0568 10.2438 50.0728 10.4131 47.5966 10.1379V9.01628V6.18037C47.5966 4.63544 48.2739 3.57727 49.3109 3.51378H55.6388C56.4006 3.57727 56.9721 4.19101 57.2049 5.16453C57.2683 5.58779 57.3107 6.13804 57.3107 6.81528C57.3107 7.74647 56.9721 8.44486 56.2102 8.99511Z" fill="#E20338"/>
<path d="M73.7542 15.0251H67.5321C66.4951 14.9616 65.7967 13.9034 65.7967 12.3585V9.52257V8.40091V4.9301V3.53331C65.7967 1.60743 64.146 0.0625 62.1143 0.0625V3.53331V7.32157V8.84534V9.52257V12.6336C62.1354 13.0357 62.1777 13.4166 62.2412 13.7764C62.3471 14.4113 62.4952 15.0674 62.7915 15.66C63.5957 17.3531 65.0983 18.3477 67.1088 18.4747H74.9182V16.2314C74.9182 15.5542 74.3891 15.0251 73.7542 15.0251Z" fill="#E20338"/>
<path d="M91.2146 12.6759L87.8284 3.9142C87.2147 2.3481 86.6645 1.35342 86.1777 0.930147C85.6909 0.528041 85.0984 0.316406 84.3576 0.316406C83.4688 0.316406 82.7492 0.655022 82.199 1.35342C81.8603 1.77669 81.4371 2.64439 80.9715 3.89303L76.8658 14.4748C76.7811 14.6864 76.7176 14.8769 76.6541 15.0462L76.1885 16.2737C76.0192 16.7393 76.0827 17.2472 76.379 17.6704C76.7176 18.1572 77.289 18.4323 77.9028 18.4323H78.2626C79.0668 18.4323 79.7863 17.9456 79.998 17.2472L80.781 14.8134H87.9977L88.8655 17.2895C89.0983 17.9667 89.7966 18.4323 90.5797 18.4323H90.9183C91.5532 18.4323 92.1246 18.136 92.4632 17.6493C92.7595 17.226 92.8019 16.6969 92.6326 16.2313L91.2146 12.6759ZM86.601 11.2156C86.5163 11.3426 86.3682 11.4061 86.1989 11.4061H82.6222C82.4529 11.4061 82.3048 11.3214 82.2201 11.1944C82.1355 11.0674 82.1143 10.9193 82.1566 10.7923L84.0402 5.54378C84.1037 5.35331 84.2941 5.22633 84.5058 5.22633C84.7174 5.22633 84.9079 5.35331 84.9714 5.54378L86.6645 10.7923C86.7068 10.9616 86.6856 11.1098 86.601 11.2156Z" fill="#E20338"/>
<path d="M106.262 0C105.712 0 105.182 0.275125 104.844 0.719558C103.172 3.02638 99.2143 8.63469 99.2143 8.63469C99.1297 8.76167 98.9604 8.84633 98.8122 8.84633C98.6429 8.84633 98.4948 8.76167 98.4101 8.63469C98.4101 8.63469 94.4526 3.02638 92.7807 0.719558C92.442 0.253962 91.9341 0 91.3627 0C89.9448 0 89.1194 1.60842 89.9236 2.79358L95.807 11.3013C96.5478 12.3383 96.9287 13.5658 96.9287 14.8568V16.698C96.9287 17.6927 97.7329 18.518 98.7064 18.518H98.7911H98.8757C99.8704 18.518 100.653 17.6927 100.653 16.698V14.8568C100.653 13.5869 101.056 12.3383 101.775 11.3013L107.659 2.79358C108.505 1.62959 107.68 0 106.262 0Z" fill="#E20338"/>
</svg>
